<svg version="1.2" xmlns="http://www.w3.org/2000/svg" viewBox="0 0 800 200" width="800" height="200">
	<title>New Project</title>
	<style>
		.s0 { fill: #ef5d30 } 
	</style>
	<path id="ALTRON" class="s0" aria-label="ALTRON"  d="m116 44.9c-30 0-54.5 24.5-54.5 54.5v54.6h16v-54.6c0-21.2 17.3-38.5 38.5-38.5 21.3 0 38.6 17.3 38.6 38.5v54.6h16v-54.6c0-30-24.5-54.5-54.6-54.5zm8.1 85v-16.1h-16.1v16.1zm78.1 8.1v-93.1h-16v109.1h109.1v-16zm61.9-93.1v16h46.6v93.1h16v-93.1h46.5v-16zm233.9 8v-8h-109.2v109.1h16.1v-46.5h38.5c21.3 0 38.5 17.2 38.5 38.5v8h16.1v-8c0-14.6-5.7-28.3-16-38.6-3.1-3.1-6.5-5.7-10.1-8 3.6-2.2 7-4.8 10.1-7.9 10.3-10.3 16-24 16-38.6zm-54.6 38.5h-38.5v-30.5h76.2c-3.7 17.4-19.2 30.5-37.7 30.5zm113-46.5c-30.1 0-54.5 24.5-54.5 54.5 0 30.1 24.4 54.6 54.5 54.6 30.1 0 54.6-24.5 54.6-54.6 0-30-24.5-54.5-54.6-54.5zm0 93.1c-21.2 0-38.5-17.3-38.5-38.6 0-21.2 17.3-38.5 38.5-38.5 21.3 0 38.5 17.3 38.5 38.5 0 21.3-17.2 38.6-38.5 38.6zm163.2-93.1v43.2c-3.5-5.4-7.6-10.4-12.2-15-18.2-18.2-42.4-28.2-68.2-28.2h-12.6v109.1h16v-93c20.2 0.8 39.1 9.1 53.5 23.5 15.2 15.2 23.5 35.4 23.5 56.9v12.6h16.1v-109.1z"/>
</svg>