<svg version="1.2" xmlns="http://www.w3.org/2000/svg" viewBox="0 0 150 150" width="150" height="150">
    <title>Watcher</title>
    <style>
        .s0 { fill: #3b82f6 }
    </style>
    <path id="w" class="s0" aria-label="w"  d="m136.8 74.8v-43.8q0-3.7-1.5-7.1-1.3-3.3-3.8-5.8-2.6-2.6-5.9-3.9-3.4-1.5-7.1-1.5-3.8 0-7.2 1.5-3.2 1.3-5.7 3.9-2.4 2.5-3.9 5.8-1.3 3.4-1.3 7.1v43.8q0 11-7.6 18.2-7.7 7.4-18.1 7.4-10.4 0-18.2-7.4-7.4-7.7-7.4-18.2v-43.8q0-3.7-1.5-7.1-1.3-3.3-3.8-5.8-2.6-2.6-5.9-3.9-3.4-1.5-7.1-1.5-3.8 0-7.2 1.5-3.2 1.3-5.7 3.9-2.4 2.5-3.9 5.8-1.3 3.4-1.3 7.1v43.8q0 25.9 18.1 44.1 18.2 18.1 43.9 18.1 25.7 0 43.8-18.1 18.3-18.4 18.3-44.1zm-80.3-43.8v43.8q0 7.6 5.4 13 5.4 5.4 12.8 5.4 3.7 0 7-1.4 3.4-1.5 5.9-4 2.5-2.5 3.9-5.7 1.5-3.4 1.5-7.3v-43.8q0-3.7-1.5-7.1-1.4-3.3-3.9-5.8-2.5-2.6-5.9-3.9-3.3-1.5-7-1.5-3.9 0-7.2 1.5-3.2 1.3-5.8 3.9-2.3 2.5-3.8 5.8-1.4 3.4-1.4 7.1z"/>
</svg>
